<?xml version="1.0" encoding="utf-8"?>
<!-- Generator: Adobe Illustrator 24.0.1, SVG Export Plug-In . SVG Version: 6.00 Build 0)  -->
<svg version="1.1"
	 id="svg4209" xmlns:cc="http://creativecommons.org/ns#" xmlns:dc="http://purl.org/dc/elements/1.1/" xmlns:inkscape="http://www.inkscape.org/namespaces/inkscape" xmlns:rdf="http://www.w3.org/1999/02/22-rdf-syntax-ns#" xmlns:sodipodi="http://sodipodi.sourceforge.net/DTD/sodipodi-0.dtd" xmlns:svg="http://www.w3.org/2000/svg"
	 xmlns="http://www.w3.org/2000/svg" xmlns:xlink="http://www.w3.org/1999/xlink" x="0px" y="0px" viewBox="0 0 217 217"
	 style="enable-background:new 0 0 217 217;" xml:space="preserve">
<style type="text/css">
	.st0{fill:#02A75B;}
	.st1{fill:#FEFEFE;}
	.st2{fill:#FFFFFF;}
</style>
<sodipodi:namedview  bordercolor="#666666" borderopacity="1.0" id="base" inkscape:current-layer="layer1" inkscape:cx="1227.7512" inkscape:cy="991.09019" inkscape:document-units="px" inkscape:pageopacity="0.0" inkscape:pageshadow="2" inkscape:window-height="924" inkscape:window-maximized="1" inkscape:window-width="1280" inkscape:window-x="0" inkscape:window-y="28" inkscape:zoom="0.20031052" pagecolor="#ffffff" showgrid="false">
	</sodipodi:namedview>
<g id="layer1" transform="translate(0,-680.31494)" inkscape:groupmode="layer" inkscape:label="Capa 1">
	<g id="g3660" transform="matrix(5.5766335,0,0,5.5766335,-1065.732,-1080.2328)">
		<g id="g3643">
			
				<path id="path3230-2-5" sodipodi:cx="21.573027" sodipodi:cy="29.287827" sodipodi:rx="18.363815" sodipodi:ry="18.720394" sodipodi:type="arc" class="st0" d="
				M229.7,335.2c0,10.6-8.6,19.1-19.1,19.1c-10.6,0-19.1-8.6-19.1-19.1c0-10.6,8.6-19.1,19.1-19.1
				C221.1,316.1,229.7,324.6,229.7,335.2z"/>
			<g id="g4007" transform="translate(-30.434321,315.16539)">
				<g id="g4059">
					
						<path id="path4005" inkscape:connector-curvature="0" sodipodi:nodetypes="cccccccccccccccccccccccccccccccccccccccccccccccccc" class="st1" d="
						M227.9,29.3l0.8,0.6l0.8,0.4l1,0.3l0.9,0.2l1.4,0.2l0.9,0.1h0.8l1-0.1l1.6-0.3l1.3-0.2l1.1-0.3l1.9-0.5l1.1-0.3l1.6-0.5
						l1.2-0.4c0.4-0.1,0.8-0.2,1.1-0.3c0.4-0.1,0.8-0.1,1.2-0.1c0.6,0,1.1,0,1.6,0.1c0.3,0.1,0.7,0.2,1,0.3c0.3,0.2,0.7,0.3,1,0.6
						c0.3,0.2,0.6,0.5,0.9,0.7l1,1c0.3,0.4,0.7,0.8,1,1.3l0.3,0.4c0,0,0.1,0,0.1-0.1c0.1,0.1,0.2,0.2,0.2,0.3c-0.1,0-0.2,0-0.3,0
						l-0.4-0.1l-0.8-0.1H252l-1.2,0.1l-1.6,0.3c-0.6,0.1-1.1,0.3-1.7,0.5l-2.9,1c-1.2,0.5-2.5,0.9-3.7,1.3l-1.8,0.3l-1.7,0.3
						l-1.2,0.1h-2l-1.6-0.2c-0.4-0.1-0.9-0.3-1.3-0.5c-0.6-0.2-1-0.6-1.5-0.9c-0.5-0.5-1-1-1.3-1.6l-0.4-0.8l-0.3-1.1l-0.1-0.7v-0.8
						v-0.2L227.9,29.3z"/>
					<g id="g4052">
						<path id="path4011" inkscape:connector-curvature="0" sodipodi:nodetypes="ccccccccccccccccccccccccccccccc" class="st0" d="
							M230.1,33.4L230,33v-0.2l0.1-0.4l0.1-0.4l0.1-0.2l0.2-0.2l0.3-0.2l0.3-0.1h0.3l0.5,0.1l0.4,0.2l0.5,0.3l0.4,0.4l0.3,0.5
							l0.3,0.6L234,34v0.4l-0.2,0.6c-0.1,0.1-0.1,0.1-0.2,0.2h-0.1l-0.3,0.2l-0.2,0.1h-0.8l-0.6-0.2l-0.5-0.3l-0.4-0.4l-0.3-0.4
							l-0.2-0.4l-0.1-0.2L230.1,33.4z"/>
						
							<path id="path4011-1" inkscape:connector-curvature="0" sodipodi:nodetypes="ccccccccccccccccccccccccccccccc" class="st0" d="
							M234.3,33.7l-0.1-0.2c0-0.1-0.1-0.2,0-0.3v-0.4c0-0.2,0.1-0.4,0.2-0.6c0.1-0.1,0.2-0.2,0.3-0.3l0.2-0.2
							c0.1-0.1,0.2-0.1,0.3-0.1s0.1-0.1,0.4-0.1h0.4l0.4,0.1c0.2,0.1,0.4,0.1,0.6,0.2l0.5,0.3l0.3,0.3l0.3,0.4
							c0.1,0.2,0.3,0.5,0.4,0.7c0,0.2,0.1,0.3,0.1,0.5s0,0.5,0,0.7s-0.1,0.4-0.2,0.5c-0.1,0.1-0.1,0.1-0.1,0.2l-0.1,0.1l-0.3,0.1
							l-0.3,0.1c-0.3,0.1-0.5,0-0.8,0l-0.6-0.2c-0.2-0.1-0.4-0.2-0.5-0.3c-0.1,0-0.3-0.3-0.4-0.4l-0.3-0.4l-0.2-0.3l-0.2-0.3
							L234.3,33.7z"/>
						
							<path id="path4011-3" inkscape:connector-curvature="0" sodipodi:nodetypes="ccccccccccccccccccccccccccccccc" class="st0" d="
							M238.7,33.3l-0.1-0.3v-0.3c-0.1-0.2,0-0.4,0-0.5l0.2-0.4l0.2-0.2c0.1-0.1,0.2-0.2,0.2-0.2c0.1-0.1,0.3-0.1,0.4-0.2l0.4-0.1
							h0.4c0.2,0,0.4,0.1,0.6,0.1c0.2,0.1,0.3,0.1,0.4,0.2c0.2,0.1,0.3,0.2,0.5,0.3c0.2,0.1,0.3,0.3,0.4,0.4
							c0.1,0.1,0.3,0.2,0.4,0.5c0.2,0.3,0.4,0.6,0.4,0.9c0,0.2,0.1,0.5,0,0.6c0,0.2-0.1,0.3-0.1,0.4c-0.1,0.2-0.2,0.4-0.3,0.5
							s-0.1,0.1-0.2,0.2l-0.1,0.1l-0.3,0.1l-0.3,0.1c-0.3,0.1-0.5,0-0.8,0l-0.6-0.2l-0.5-0.3l-0.4-0.4l-0.3-0.4l-0.2-0.4l-0.1-0.2
							L238.7,33.3z"/>
						
							<path id="path4011-8" inkscape:connector-curvature="0" sodipodi:nodetypes="ccccccccccccccccccccccccccccccc" class="st0" d="
							M242.7,31.7c-0.1-0.2-0.1-0.3-0.1-0.5v-0.4l0.1-0.2c0.1-0.2,0.1-0.3,0.2-0.4l0.2-0.2l0.2-0.2l0.3-0.2l0.3-0.1h0.3l0.5,0.1
							l0.4,0.1l0.5,0.2l0.5,0.3l0.4,0.4c0.2,0.2,0.3,0.4,0.4,0.6c0.1,0.2,0.2,0.4,0.2,0.6c0,0.2,0,0.4,0,0.6
							c-0.1,0.2-0.1,0.4-0.3,0.6c-0.1,0.1-0.1,0.2-0.2,0.2l-0.2,0.1l-0.2,0.1l-0.5,0.1c-0.3,0-0.5,0-0.8,0l-0.6-0.2l-0.5-0.3
							c-0.2-0.1-0.3-0.2-0.4-0.3l-0.3-0.4l-0.2-0.3L242.7,31.7L242.7,31.7z"/>
						
							<path id="path4011-0" inkscape:connector-curvature="0" sodipodi:nodetypes="ccccccccccccccccccccccccccccccc" class="st0" d="
							M247,30.7l-0.1-0.3v-0.2c0-0.1,0-0.2,0-0.3c0-0.2,0.1-0.3,0.2-0.5l0.2-0.2l0.3-0.2c0.1-0.1,0.2-0.1,0.3-0.2h0.3h0.3l0.5,0.1
							c0.1,0.1,0.2,0.1,0.4,0.1c0.2,0.1,0.5,0.2,0.6,0.4c0.1,0,0.2,0.1,0.3,0.2l0.4,0.4c0.2,0.2,0.2,0.5,0.3,0.7
							c0,0.2,0.1,0.4,0.1,0.6s0,0.3-0.1,0.4l-0.2,0.3c-0.1,0.1-0.2,0.2-0.3,0.3l-0.2,0.1l-0.2,0.1l-0.3,0.1h-0.6l-0.6-0.1l-0.5-0.2
							l-0.5-0.3l-0.5-0.5l-0.1-0.2l-0.1-0.2L247,30.7z"/>
					</g>
				</g>
				<g id="g4001">
					
						<path id="path4068" inkscape:connector-curvature="0" sodipodi:nodetypes="ccccccccccccccccccccccccccccccccccccccccccccccc" class="st2" d="
						M234.3,9.5l0.4-1.2l0.3-0.8l0.4-0.8l0.5-0.9l0.6-0.8l0.5-0.6l0.4-0.4l0.5-0.6l0.8,0.4l0.9,0.6l1,0.8l0.7,0.8l0.6,0.6l0.6,0.8
						l0.5,0.7l0.4,0.7l0.3,0.7l0.2,0.8l0.1,0.8v0.8v0.8l-0.3,0.8l-0.3,0.8L243,15l-0.4,0.6l-0.6,0.7l-0.6,0.6l-1.1,0.8
						c-0.6-3.6-1-7.2-1.8-10.8c0.3,3.4,0.8,7.2,1.2,10.8l-0.6-0.2l-0.5-0.1l-0.6-0.3l-0.8-0.4l-0.4-0.2l-0.4-0.3l-0.5-0.4l-0.4-0.4
						l-0.4-0.5l-0.4-0.7l-0.4-1.1l-0.1-0.5l-0.1-0.9l0.1-0.8l0.1-0.8V9.5z"/>
					
						<path id="path4070" inkscape:connector-curvature="0" sodipodi:nodetypes="ccccccccccccccccccccccccccccccccccccccccc" class="st2" d="
						M239.5,20.7l-8.6-0.9l1.9,0.4l1.8,0.3l1.4,0.2l1.9,0.3l1.5,0.2l-0.4,0.7l-0.5,0.7l-0.6,0.7l-0.6,0.5l-0.7,0.4l-0.8,0.3
						l-0.7,0.1h-0.9l-0.8-0.2l-0.8-0.2l-1.1-0.5l-1.2-0.8l-0.9-0.8l-0.7-0.7l-0.7-0.9l-0.4-0.6l-0.4-0.6l0.6-0.5l0.9-0.8l0.6-0.4
						l0.6-0.4l1.2-0.6l0.8-0.4l0.9-0.2l1.1-0.2h0.9l0.9,0.2l0.7,0.2l0.8,0.5l0.8,0.8l0.7,0.9l0.6,1l0.3,0.9L239.5,20.7z"/>
					
						<path id="path4072" inkscape:connector-curvature="0" sodipodi:nodetypes="ccccccccccccccccccccccccccccccccccccccccccccccccc" class="st2" d="
						M241,20.4l0.1-0.7v-0.6l0.1-0.6l0.2-0.8l0.4-0.9l0.6-0.8l0.9-0.8l0.9-0.5l0.7-0.3l1-0.1l0.8-0.1h1l0.9,0.1l1,0.2l1,0.3l0.9,0.3
						l0.8,0.3l0.9,0.6l-0.1,0.6l-0.3,0.8l-0.5,1.2l-0.6,0.9l-0.5,0.6l-0.6,0.9l-0.6,0.7c-0.2,0.3-0.5,0.4-0.8,0.6l-0.8,0.5l-0.7,0.3
						l-0.8,0.2l-0.8,0.1h-0.9l-0.9-0.3l-1-0.5l-0.9-0.6l-0.8-0.6l-0.4-0.5l3.5-1.4l1.7-0.7l2.1-0.9l1.7-0.7l2.2-0.8l-2.1,0.7
						l-1.9,0.7l-1.6,0.6l-1.5,0.5l-1.7,0.7l-1.1,0.4L241,20.4z"/>
					
						<path id="path3231" inkscape:connector-curvature="0" sodipodi:nodetypes="cccccccccccccccccccccccccccccccccccccccccc" class="st2" d="
						M239.7,17.5h0.5l0.1,0.5v0.4V19l0.1,0.8l0.1,0.8l0.4-0.2l0.2,0.4l-0.6,0.3l0.1,0.6v0.5v0.5v0.5v0.6l-0.1,0.5l-0.1,0.6l-0.1,0.6
						l-0.2,0.8l-0.2,0.6l-0.3,0.6l-0.4,0.7l-0.3,0.5l-0.4-0.2l0.3-0.4l0.4-0.6l0.4-0.8l0.2-0.7l0.2-0.5l0.1-0.5l0.1-0.5
						c0.1-0.5,0.1-1.1,0.1-1.8v-0.9l-0.1-0.4l0,0h-0.8l0.1-0.5l0.6,0.1l-0.1-1l-0.1-0.9v-0.6L239.7,17.5z"/>
				</g>
			</g>
		</g>
	</g>
</g>
</svg>
