<?xml version="1.0" encoding="utf-8"?>
<!-- Generator: Adobe Illustrator 24.0.1, SVG Export Plug-In . SVG Version: 6.00 Build 0)  -->
<svg version="1.1"
	 id="svg4209" xmlns:cc="http://creativecommons.org/ns#" xmlns:dc="http://purl.org/dc/elements/1.1/" xmlns:inkscape="http://www.inkscape.org/namespaces/inkscape" xmlns:rdf="http://www.w3.org/1999/02/22-rdf-syntax-ns#" xmlns:sodipodi="http://sodipodi.sourceforge.net/DTD/sodipodi-0.dtd" xmlns:svg="http://www.w3.org/2000/svg"
	 xmlns="http://www.w3.org/2000/svg" xmlns:xlink="http://www.w3.org/1999/xlink" x="0px" y="0px" viewBox="0 0 217 217"
	 style="enable-background:new 0 0 217 217;" xml:space="preserve">
<style type="text/css">
	.st0{fill:#82104E;}
	.st1{fill:#FFFFFF;}
	.st2{font-family:'Arial-BoldMT';}
	.st3{font-size:56.7875px;}
</style>
<sodipodi:namedview  bordercolor="#666666" borderopacity="1.0" id="base" inkscape:current-layer="layer1" inkscape:cx="751.07539" inkscape:cy="884.34989" inkscape:document-units="px" inkscape:pageopacity="0.0" inkscape:pageshadow="2" inkscape:window-height="924" inkscape:window-maximized="1" inkscape:window-width="1280" inkscape:window-x="0" inkscape:window-y="28" inkscape:zoom="0.20031052" pagecolor="#ffffff" showgrid="false">
	</sodipodi:namedview>
<g id="layer1" transform="translate(0,-680.31494)" inkscape:groupmode="layer" inkscape:label="Capa 1">
	<g id="g3298" transform="matrix(4.1030005,0,0,4.1030005,-784.27251,-540.32916)">
		<g id="g3276">
			
				<path id="path3230-2-9" sodipodi:cx="21.573027" sodipodi:cy="29.287827" sodipodi:rx="18.363815" sodipodi:ry="18.720394" sodipodi:type="arc" class="st0" d="
				M244,323.9c0,14.6-11.8,26.4-26.4,26.4c-14.6,0-26.4-11.8-26.4-26.4s11.8-26.4,26.4-26.4S244,309.3,244,323.9z"/>
			<g id="g4196" transform="translate(-290.43647,304.95931)">
				<g id="g4054">
					<text transform="matrix(0.2437 0 0 0.2437 495.923 10.6419)" class="st1 st2 st3">E</text>
					<text transform="matrix(0.2437 0 0 0.2437 504.1302 10.7124)" class="st1 st2 st3">-</text>
					<text transform="matrix(0.2437 0 0 0.2437 508.5135 10.6419)" class="st1 st2 st3">X</text>
				</g>
				<path id="path4062" inkscape:connector-curvature="0" sodipodi:nodetypes="ccccccccccccccccccccccc" class="st1" d="M516.5,37.3
					v-1.7l8.3-5l-0.1-10.3l-8.3-4.7v-1.9h-1.3v1.9l-7.2,4.2l-7.3-4.2v-1.8h-1.2v1.8l-8.3,4.7L491,30.8l8.3,4.8v1.7h1.3v-1.8l7.1-4.2
					l7.3,4.1l-0.1,1.8L516.5,37.3z"/>
				<path id="path4074" inkscape:connector-curvature="0" sodipodi:nodetypes="ccccccc" class="st0" d="M500.2,17.8l6.6,3.8v7.7
					l-6.7,4l-6.8-3.9v-7.9L500.2,17.8z"/>
				<path id="path3266" inkscape:connector-curvature="0" sodipodi:nodetypes="ccccc" class="st1" d="M494.6,22l0.7,1.1l5.1-3
					l-0.6-1.1L494.6,22z"/>
				<path id="path4074-5" inkscape:connector-curvature="0" sodipodi:nodetypes="ccccccc" class="st0" d="M516,17.4l6.6,3.8v7.7
					l-6.7,4l-6.8-3.9v-7.9L516,17.4z"/>
				<path id="path3266-0" inkscape:connector-curvature="0" sodipodi:nodetypes="ccccc" class="st1" d="M510.3,22l0.7,1.1l5.1-3
					l-0.6-1.1L510.3,22z"/>
				<path id="path4054" inkscape:connector-curvature="0" class="st1" d="M520.3,22.6h1.2v6.2l-5.4,3.2l-0.6-1.1l4.8-2.7V22.6z"/>
				<path id="path4054-2" inkscape:connector-curvature="0" sodipodi:nodetypes="ccccccc" class="st1" d="M504.5,22.5h1.3v6.2
					l-5.4,3.2l-0.7-1.1l4.8-2.7L504.5,22.5z"/>
				
					<path id="path4064" sodipodi:cx="500.03137" sodipodi:cy="28.692717" sodipodi:rx="1.3572516" sodipodi:ry="1.3241479" sodipodi:type="arc" class="st1" d="
					M494.4,21.2c0,1.1-0.9,1.9-1.9,1.9c-1.1,0-1.9-0.9-1.9-1.9c0-1.1,0.9-1.9,1.9-1.9C493.5,19.3,494.4,20.2,494.4,21.2z"/>
				
					<path id="path4064-8" sodipodi:cx="500.03137" sodipodi:cy="28.692717" sodipodi:rx="1.3572516" sodipodi:ry="1.3241479" sodipodi:type="arc" class="st1" d="
					M494.3,29.8c0,1.1-0.9,1.9-1.9,1.9c-1.1,0-1.9-0.9-1.9-1.9c0-1.1,0.9-1.9,1.9-1.9S494.3,28.8,494.3,29.8z"/>
				
					<path id="path4064-2" sodipodi:cx="500.03137" sodipodi:cy="28.692717" sodipodi:rx="1.3572516" sodipodi:ry="1.3241479" sodipodi:type="arc" class="st1" d="
					M509.9,30.3c0,1.1-0.9,1.9-1.9,1.9c-1.1,0-1.9-0.9-1.9-1.9s0.9-1.9,1.9-1.9C509,28.4,509.9,29.2,509.9,30.3z"/>
				
					<path id="path4064-0" sodipodi:cx="500.03137" sodipodi:cy="28.692717" sodipodi:rx="1.3572516" sodipodi:ry="1.3241479" sodipodi:type="arc" class="st1" d="
					M525.6,30.1c0,1.1-0.9,1.9-1.9,1.9s-1.9-0.9-1.9-1.9s0.9-1.9,1.9-1.9C524.7,28.2,525.6,29,525.6,30.1z"/>
			</g>
		</g>
	</g>
</g>
</svg>
