<svg id="Capa_1" data-name="Capa 1" xmlns="http://www.w3.org/2000/svg" viewBox="0 0 261.26 215.77"><defs><style>.cls-1{fill:#fff;}</style></defs><title>logo-mymenu</title><path class="cls-1" d="M235.17,82.92A3.38,3.38,0,0,1,232,80.64a101.18,101.18,0,0,0-191.4,0,3.37,3.37,0,1,1-6.38-2.19,107.93,107.93,0,0,1,204.16,0,3.38,3.38,0,0,1-2.1,4.28A3.46,3.46,0,0,1,235.17,82.92Z" transform="translate(-5.65 -5.57)"/><path class="cls-1" d="M136.28,221.34A108.5,108.5,0,0,1,38.94,160,3.37,3.37,0,1,1,45,157.11a101.19,101.19,0,0,0,182.53,0,3.37,3.37,0,1,1,6.08,2.91A108.5,108.5,0,0,1,136.28,221.34Z" transform="translate(-5.65 -5.57)"/><polygon class="cls-1" points="17.72 121.97 8.49 87.26 0 87.26 0 139.85 5.66 139.85 5.66 96.32 15.13 131.76 20.39 131.76 29.86 96.32 29.86 139.85 35.52 139.85 35.52 87.26 27.02 87.26 17.72 121.97"/><path class="cls-1" d="M76.36,119.36c0,3.44-1.78,5.45-5.2,6.15V92.77H65.5v32.75c-3.49-.68-5.32-2.68-5.32-6.16V92.82H54.52v26.54q0,10,11,11.17v14.89h5.67V130.53Q82,129.32,82,119.36V92.82H76.36Z" transform="translate(-5.65 -5.57)"/><path class="cls-1" d="M130.89,91.61q-6.3,0-10.19,5.91c-1.5-3.94-5-5.91-10.43-5.91a11,11,0,0,0-6,1.74A13.41,13.41,0,0,0,99.83,98l-2-5.18H95.38v52.6H101V104.31q0-2.58,2.87-5.22a9.12,9.12,0,0,1,6.28-2.62c3.87,0,5.82,2.15,5.82,6.47v42.48h5.66V104.56c0-1.73,1-3.51,2.87-5.34a8.88,8.88,0,0,1,6.27-2.75q5.83,0,5.84,6.47v42.48h5.66V102.94Q142.31,91.62,130.89,91.61Z" transform="translate(-5.65 -5.57)"/><path class="cls-1" d="M169.74,91.61q-6.65,0-10,3t-3.32,8.38V135.3q0,5.43,3.41,8.38t10,2.95q6.65,0,10-2.95t3.32-8.38v-4.45H177.5v4.45q0,6.48-7.68,6.48t-7.69-6.48V120.74h21v-17.8q0-5.43-3.41-8.38C177.5,92.59,174.15,91.61,169.74,91.61Zm7.76,24.27H162.13V102.94q0-6.48,7.69-6.47t7.68,6.47Z" transform="translate(-5.65 -5.57)"/><path class="cls-1" d="M213.35,91.61q-6.89,0-10.76,6.47l-2-5.26h-2.42v52.6h5.66V104.56c0-1.73,1-3.51,3-5.34a9.44,9.44,0,0,1,6.55-2.75q3.56,0,4.89,1.69a7.53,7.53,0,0,1,1.34,4.78v42.48h5.66V102.94Q225.24,91.62,213.35,91.61Z" transform="translate(-5.65 -5.57)"/><path class="cls-1" d="M261.24,92.82v40.86q0,2.59-3,5.34a9.53,9.53,0,0,1-6.56,2.76c-2.37,0-4-.57-4.9-1.7a7.65,7.65,0,0,1-1.33-4.78V92.82H239.8V135.3q0,11.34,11.9,11.33a11.36,11.36,0,0,0,6.11-1.74,14,14,0,0,0,4.57-4.65l2.1,5.18h2.43V92.82Z" transform="translate(-5.65 -5.57)"/></svg>