<?xml version="1.0" encoding="utf-8"?>
<!-- Generator: Adobe Illustrator 24.0.1, SVG Export Plug-In . SVG Version: 6.00 Build 0)  -->
<svg version="1.1" id="Capa_1" xmlns="http://www.w3.org/2000/svg" xmlns:xlink="http://www.w3.org/1999/xlink" x="0px" y="0px"
	 viewBox="0 0 642 642" style="enable-background:new 0 0 642 642;" xml:space="preserve">
<style type="text/css">
	.st0{fill:#FFFFFF;}
</style>
<g>
	<g id="person">
		<path class="st0" d="M321,304c52,0,94.5-42.5,94.5-94.5S373,115,321,115s-94.5,42.5-94.5,94.5S269,304,321,304z M321,351.2
			c-63.8,0-189,30.7-189,94.5V493h378v-47.2C510,382,384.8,351.2,321,351.2z"/>
	</g>
</g>
<g>
	<path class="st0" d="M321,16c41.2,0,81.1,8.1,118.7,24c36.3,15.4,68.9,37.4,97,65.4c28,28,50,60.6,65.4,97
		c15.9,37.6,24,77.5,24,118.7s-8.1,81.1-24,118.7c-15.4,36.3-37.4,68.9-65.4,97c-28,28-60.6,50-97,65.4c-37.6,15.9-77.5,24-118.7,24
		s-81.1-8.1-118.7-24c-36.3-15.4-68.9-37.4-97-65.4c-28-28-50-60.6-65.4-97C24.1,402.1,16,362.2,16,321s8.1-81.1,24-118.7
		c15.4-36.3,37.4-68.9,65.4-97c28-28,60.6-50,97-65.4C239.9,24.1,279.8,16,321,16 M321,0C143.7,0,0,143.7,0,321s143.7,321,321,321
		s321-143.7,321-321S498.3,0,321,0L321,0z"/>
</g>
</svg>
