<?xml version="1.0" encoding="utf-8"?>
<!-- Generator: Adobe Illustrator 24.0.1, SVG Export Plug-In . SVG Version: 6.00 Build 0)  -->
<svg version="1.1" id="Capa_2_1_" xmlns="http://www.w3.org/2000/svg" xmlns:xlink="http://www.w3.org/1999/xlink" x="0px" y="0px"
	 viewBox="0 0 49.4 14.7" style="enable-background:new 0 0 49.4 14.7;" xml:space="preserve">
<style type="text/css">
	.st0{fill:#12100B;}
	.st1{fill:#B0ADAB;}
	.st2{fill:#FFFFFF;}
</style>
<title>apple-store</title>
<path class="st0" d="M1.8,0h45.7c1,0,1.8,0.8,1.8,1.8v11c0,1-0.8,1.8-1.8,1.8H1.8c-1,0-1.8-0.8-1.8-1.8v-11C0,0.8,0.8,0,1.8,0z"/>
<path class="st1" d="M47.5,0.3c0.8,0,1.5,0.7,1.5,1.5v11c0,0.8-0.7,1.5-1.5,1.5H1.8c-0.8,0-1.5-0.7-1.5-1.5v-11C0.4,1,1,0.4,1.8,0.3
	H47.5 M47.5,0H1.8C0.8,0,0,0.8,0,1.8v11c0,1,0.8,1.8,1.8,1.8h45.7c1,0,1.8-0.9,1.8-1.9v-11C49.3,0.8,48.5,0,47.5,0L47.5,0z"/>
<path class="st2" d="M15.1,3.2c0.6,0,1,0.4,1,1c0,0,0,0,0,0.1c0,0.6-0.4,1-0.9,1.1c0,0-0.1,0-0.1,0h-0.7V3.2H15.1z M14.6,5.1H15
	c0.4,0,0.7-0.3,0.7-0.6c0,0,0-0.1,0-0.1c0.1-0.4-0.2-0.7-0.6-0.8c0,0-0.1,0-0.1,0h-0.4L14.6,5.1z"/>
<path class="st2" d="M17.9,5c-0.1,0.3-0.4,0.5-0.7,0.5c-0.4,0-0.7-0.3-0.8-0.7c0,0,0-0.1,0-0.1c-0.1-0.4,0.2-0.8,0.6-0.8
	c0,0,0.1,0,0.1,0c0.5,0,0.7,0.3,0.7,0.8v0.1h-1.1l0,0c0,0.2,0.2,0.4,0.4,0.5c0,0,0,0,0.1,0c0.2,0,0.3-0.1,0.4-0.2L17.9,5z M16.8,4.4
	h0.8c0-0.2-0.1-0.4-0.3-0.4c0,0,0,0-0.1,0C17,4,16.8,4.2,16.8,4.4L16.8,4.4z"/>
<path class="st2" d="M19,3.7c0.4,0,0.6,0.2,0.6,0.5h-0.3C19.3,4.1,19.1,4,19,4s-0.3,0.1-0.3,0.2s0.1,0.1,0.3,0.2l0.3,0.1
	c0.3,0.1,0.5,0.2,0.5,0.4S19.3,5.4,19,5.4S18.3,5.3,18.3,5h0.3c0,0.1,0.2,0.2,0.4,0.2s0.3-0.1,0.3-0.2s-0.1-0.2-0.2-0.2l-0.3-0.1
	c-0.3-0.1-0.5-0.2-0.5-0.5S18.6,3.7,19,3.7z"/>
<path class="st2" d="M21.1,4.3c0-0.2-0.2-0.3-0.4-0.3c-0.3,0-0.4,0.2-0.4,0.6c0,0.3,0.2,0.6,0.4,0.6c0.2,0,0.3-0.1,0.4-0.3h0.3
	c0,0.3-0.3,0.6-0.7,0.6c-0.4,0-0.8-0.3-0.8-0.7c0,0,0-0.1,0-0.1c-0.1-0.4,0.2-0.8,0.6-0.8c0,0,0.1,0,0.1,0c0.4,0,0.7,0.2,0.7,0.6
	L21.1,4.3z"/>
<path class="st2" d="M21.8,4.9c0-0.3,0.2-0.5,0.6-0.5h0.4V4.3c0-0.2-0.1-0.3-0.3-0.3c-0.1,0-0.3,0.1-0.3,0.2h-0.3
	c0-0.3,0.3-0.5,0.7-0.5s0.6,0.2,0.6,0.6v1.1h-0.3V5.2l0,0c-0.1,0.2-0.3,0.3-0.5,0.3C22,5.5,21.8,5.3,21.8,4.9
	C21.8,5,21.7,5,21.8,4.9z M22.8,4.8V4.7h-0.4c-0.2,0-0.3,0.1-0.3,0.2s0.1,0.2,0.3,0.2C22.5,5.2,22.7,5,22.8,4.8
	C22.8,4.8,22.8,4.8,22.8,4.8L22.8,4.8z M22.2,3.5L22.6,3H23l-0.4,0.5H22.2z"/>
<path class="st2" d="M23.6,3.8h0.3V4l0,0c0.1-0.2,0.2-0.3,0.4-0.3h0.1v0.3h-0.2c-0.2,0-0.4,0.1-0.4,0.3c0,0,0,0,0,0v1h-0.3L23.6,3.8
	z"/>
<path class="st2" d="M24.8,5.6h0.3c0,0.1,0.2,0.2,0.4,0.2S26,5.6,26,5.4V5.1l0,0c-0.1,0.2-0.3,0.3-0.5,0.3c-0.4,0-0.7-0.3-0.7-0.8
	s0.3-0.8,0.7-0.8c0.2,0,0.4,0.1,0.5,0.3l0,0V3.8h0.3v1.6C26.3,5.8,26,6,25.5,6S24.9,5.8,24.8,5.6z M26,4.6C26,4.2,25.8,4,25.5,4
	s-0.4,0.2-0.4,0.5s0.2,0.5,0.4,0.5S26,4.9,26,4.6L26,4.6z"/>
<path class="st2" d="M26.7,4.9c0-0.3,0.2-0.5,0.6-0.5h0.4V4.3c0-0.2-0.1-0.3-0.3-0.3s-0.3,0.1-0.3,0.2h-0.3c0-0.3,0.3-0.5,0.7-0.5
	s0.6,0.2,0.6,0.6v1.1h-0.3V5.2l0,0c-0.1,0.2-0.3,0.3-0.5,0.3C27,5.5,26.8,5.3,26.7,4.9C26.7,5,26.7,5,26.7,4.9z M27.7,4.8V4.7h-0.4
	c-0.2,0-0.3,0.1-0.3,0.2s0.1,0.2,0.3,0.2C27.5,5.2,27.7,5,27.7,4.8C27.7,4.8,27.7,4.8,27.7,4.8L27.7,4.8z"/>
<path class="st2" d="M28.6,3.1h0.3v2.3h-0.3V3.1z"/>
<path class="st2" d="M29.3,4.6c0-0.4,0.3-0.8,0.8-0.8s0.8,0.3,0.8,0.8s-0.3,0.8-0.8,0.8S29.3,5,29.3,4.6L29.3,4.6z M30.5,4.6
	c0-0.4-0.2-0.6-0.4-0.6s-0.4,0.2-0.4,0.6s0.2,0.6,0.4,0.6S30.5,4.9,30.5,4.6z"/>
<path class="st2" d="M33.6,5c-0.1,0.3-0.4,0.5-0.7,0.5c-0.4,0-0.7-0.3-0.8-0.7c0,0,0-0.1,0-0.1c-0.1-0.4,0.2-0.8,0.6-0.8
	c0,0,0.1,0,0.1,0c0.5,0,0.7,0.3,0.7,0.8v0.1h-1.2l0,0c0,0.2,0.2,0.4,0.4,0.5c0,0,0,0,0.1,0c0.2,0,0.3-0.1,0.4-0.2L33.6,5z M32.4,4.4
	h0.8c0-0.2-0.1-0.4-0.3-0.4c0,0,0,0-0.1,0C32.6,4,32.4,4.2,32.4,4.4z"/>
<path class="st2" d="M34,3.8h0.3V4l0,0c0.1-0.2,0.3-0.3,0.5-0.3c0.4,0,0.6,0.2,0.6,0.6v1.1h-0.3v-1C35.1,4.1,35,4,34.7,4
	c-0.2,0-0.4,0.1-0.4,0.3c0,0,0,0,0,0.1v1H34L34,3.8z"/>
<path class="st2" d="M38.1,5c-0.1,0.3-0.4,0.5-0.7,0.5c-0.4,0-0.7-0.3-0.8-0.7c0,0,0-0.1,0-0.1c-0.1-0.4,0.2-0.8,0.6-0.8
	c0,0,0.1,0,0.1,0c0.5,0,0.7,0.3,0.7,0.8v0.1H37l0,0c0,0.2,0.2,0.4,0.4,0.5c0,0,0,0,0,0c0.2,0,0.3-0.1,0.4-0.2L38.1,5z M37,4.4h0.8
	c0-0.2-0.1-0.4-0.4-0.4c0,0,0,0,0,0C37.2,4,37,4.2,37,4.4C37,4.4,37,4.4,37,4.4z"/>
<path class="st2" d="M38.6,3.1h0.3v2.3h-0.3V3.1z"/>
<path class="st2" d="M10.4,7.4c0-0.6,0.3-1.2,0.9-1.5c-0.3-0.5-0.9-0.8-1.4-0.8C9.2,5.1,8.6,5.5,8.3,5.5S7.5,5.2,7,5.2
	c-0.7,0-1.3,0.4-1.6,1c-0.7,1.2-0.2,3,0.5,4c0.3,0.5,0.7,1,1.2,1s0.7-0.3,1.3-0.3s0.8,0.3,1.3,0.3s0.9-0.5,1.2-1
	c0.2-0.3,0.4-0.7,0.6-1.1C10.8,8.8,10.4,8.1,10.4,7.4z"/>
<path class="st2" d="M9.4,4.5c0.3-0.3,0.4-0.8,0.4-1.3C9.4,3.3,9,3.5,8.7,3.8C8.4,4.2,8.2,4.6,8.3,5C8.7,5.1,9.1,4.9,9.4,4.5z"/>
<path class="st2" d="M16.8,9.9H15l-0.4,1.2h-0.7l1.6-4.5h0.8l1.6,4.5h-0.7L16.8,9.9z M15.2,9.3h1.4l-0.7-2l0,0L15.2,9.3z"/>
<path class="st2" d="M21.4,9.5c0,1-0.5,1.7-1.4,1.7c-0.4,0-0.8-0.2-1-0.6l0,0v1.6h-0.7V7.8H19v0.5l0,0c0.2-0.4,0.6-0.6,1-0.6
	C20.8,7.8,21.4,8.4,21.4,9.5z M20.7,9.5c0-0.7-0.4-1.1-0.9-1.1S19,8.8,19,9.5s0.3,1.1,0.9,1.1S20.7,10.1,20.7,9.5z"/>
<path class="st2" d="M25,9.5c0,1-0.5,1.7-1.4,1.7c-0.4,0-0.8-0.2-1-0.6l0,0v1.6h-0.7V7.8h0.6v0.5l0,0c0.2-0.4,0.6-0.6,1-0.6
	C24.4,7.8,25,8.4,25,9.5z M24.3,9.5c0-0.7-0.3-1.1-0.9-1.1s-0.9,0.4-0.9,1.1s0.4,1.1,0.9,1.1S24.3,10.1,24.3,9.5L24.3,9.5z"/>
<path class="st2" d="M27.3,9.9c0,0.4,0.5,0.7,1.1,0.7s1-0.3,1-0.7s-0.2-0.6-0.8-0.7L28,9.1c-0.8-0.2-1.2-0.6-1.2-1.2
	s0.7-1.3,1.6-1.3C29.2,6.4,29.9,7,30,7.8c0,0,0,0,0,0.1h-0.7c0-0.4-0.4-0.7-1-0.7s-0.9,0.3-0.9,0.7s0.2,0.5,0.8,0.6l0.5,0.1
	C29.7,8.8,30,9.2,30,9.8c0,0.8-0.7,1.4-1.7,1.4s-1.7-0.5-1.7-1.3L27.3,9.9z"/>
<path class="st2" d="M31.6,7.1v0.8h0.6v0.5h-0.6v1.8c0,0.3,0.1,0.4,0.4,0.4h0.2v0.5c-0.1,0-0.3,0-0.4,0c-0.7,0-0.9-0.2-0.9-0.9V8.3
	h-0.5V7.8h0.5V7L31.6,7.1z"/>
<path class="st2" d="M32.5,9.5c-0.1-0.9,0.5-1.6,1.4-1.7s1.6,0.5,1.7,1.4c0,0.1,0,0.2,0,0.4c0,0.9-0.7,1.6-1.5,1.6
	S32.5,10.3,32.5,9.5C32.5,9.5,32.5,9.5,32.5,9.5z M35,9.5c0-0.7-0.3-1.1-0.9-1.1s-0.9,0.4-0.9,1.1s0.3,1.1,0.9,1.1S35,10.2,35,9.5z"
	/>
<path class="st2" d="M36.2,7.8h0.6v0.6l0,0c0.1-0.4,0.4-0.6,0.8-0.6h0.2v0.6c-0.1,0-0.2,0-0.3,0c-0.4,0-0.7,0.3-0.7,0.7
	c0,0,0,0.1,0,0.1v1.9h-0.7L36.2,7.8z"/>
<path class="st2" d="M41,10.1c-0.2,0.6-0.7,1.1-1.4,1c-0.8,0-1.5-0.6-1.5-1.4c0-0.1,0-0.2,0-0.2c-0.1-0.8,0.5-1.6,1.3-1.7
	c0.1,0,0.1,0,0.2,0c0.8,0,1.5,0.6,1.5,1.4c0,0.1,0,0.1,0,0.2v0.2h-2.3v0.1c0,0.5,0.3,0.9,0.8,0.9c0,0,0.1,0,0.1,0
	c0.3,0,0.7-0.1,0.8-0.5H41z M38.7,9.1h1.6c0-0.4-0.3-0.8-0.7-0.8c0,0,0,0-0.1,0C39.1,8.3,38.7,8.6,38.7,9.1
	C38.7,9.1,38.7,9.1,38.7,9.1L38.7,9.1z"/>
</svg>
