<?xml version="1.0" encoding="utf-8"?>
<!-- Generator: Adobe Illustrator 24.0.1, SVG Export Plug-In . SVG Version: 6.00 Build 0)  -->
<svg version="1.1" id="Capa_2_1_" xmlns="http://www.w3.org/2000/svg" xmlns:xlink="http://www.w3.org/1999/xlink" x="0px" y="0px"
	 viewBox="0 0 49.4 14.7" style="enable-background:new 0 0 49.4 14.7;" xml:space="preserve">
<style type="text/css">
	.st0{fill:#12100B;}
	.st1{fill:#B0ADAB;}
	.st2{fill:#FFFFFF;}
	.st3{fill:#70C9F3;}
	.st4{clip-path:url(#SVGID_2_);fill:#FFE000;}
	.st5{clip-path:url(#SVGID_4_);fill:#CB1562;}
	.st6{clip-path:url(#SVGID_4_);fill:#CA1463;}
	.st7{clip-path:url(#SVGID_4_);fill:#CA1364;}
	.st8{clip-path:url(#SVGID_4_);fill:#C91265;}
	.st9{clip-path:url(#SVGID_4_);fill:#C81166;}
	.st10{clip-path:url(#SVGID_6_);fill:#3BA363;}
	.st11{clip-path:url(#SVGID_6_);fill:#3CA363;}
	.st12{clip-path:url(#SVGID_6_);fill:#3DA463;}
	.st13{clip-path:url(#SVGID_6_);fill:#3EA463;}
	.st14{clip-path:url(#SVGID_6_);fill:#3FA562;}
	.st15{clip-path:url(#SVGID_6_);fill:#40A562;}
	.st16{clip-path:url(#SVGID_6_);fill:#41A562;}
	.st17{clip-path:url(#SVGID_6_);fill:#42A662;}
	.st18{clip-path:url(#SVGID_6_);fill:#43A662;}
	.st19{clip-path:url(#SVGID_6_);fill:#44A762;}
	.st20{clip-path:url(#SVGID_6_);fill:#45A762;}
	.st21{clip-path:url(#SVGID_6_);fill:#46A762;}
	.st22{clip-path:url(#SVGID_6_);fill:#48A861;}
	.st23{clip-path:url(#SVGID_6_);fill:#49A861;}
	.st24{clip-path:url(#SVGID_6_);fill:#4AA861;}
	.st25{clip-path:url(#SVGID_6_);fill:#4BA961;}
	.st26{clip-path:url(#SVGID_6_);fill:#4CA961;}
	.st27{clip-path:url(#SVGID_6_);fill:#4DAA61;}
	.st28{clip-path:url(#SVGID_6_);fill:#4EAA61;}
	.st29{clip-path:url(#SVGID_6_);fill:#4FAA61;}
	.st30{clip-path:url(#SVGID_6_);fill:#50AB60;}
	.st31{clip-path:url(#SVGID_6_);fill:#51AB60;}
	.st32{clip-path:url(#SVGID_6_);fill:#52AC60;}
	.st33{clip-path:url(#SVGID_6_);fill:#53AC60;}
	.st34{clip-path:url(#SVGID_6_);fill:#54AC60;}
	.st35{clip-path:url(#SVGID_6_);fill:#55AD60;}
	.st36{clip-path:url(#SVGID_6_);fill:#56AD60;}
	.st37{clip-path:url(#SVGID_6_);fill:#57AD60;}
	.st38{clip-path:url(#SVGID_6_);fill:#58AE5F;}
	.st39{clip-path:url(#SVGID_6_);fill:#59AE5F;}
	.st40{clip-path:url(#SVGID_6_);fill:#5AAF5F;}
	.st41{clip-path:url(#SVGID_6_);fill:#5BAF5F;}
	.st42{clip-path:url(#SVGID_6_);fill:#5CAF5F;}
	.st43{clip-path:url(#SVGID_6_);fill:#5DB05F;}
	.st44{clip-path:url(#SVGID_6_);fill:#5EB05F;}
	.st45{clip-path:url(#SVGID_6_);fill:#5FB15E;}
	.st46{clip-path:url(#SVGID_6_);fill:#60B15E;}
	.st47{clip-path:url(#SVGID_6_);fill:#61B25E;}
	.st48{clip-path:url(#SVGID_6_);fill:#62B25E;}
	.st49{clip-path:url(#SVGID_6_);fill:#63B25E;}
	.st50{clip-path:url(#SVGID_6_);fill:#64B35E;}
	.st51{clip-path:url(#SVGID_6_);fill:#65B35E;}
	.st52{clip-path:url(#SVGID_6_);fill:#66B45E;}
	.st53{clip-path:url(#SVGID_6_);fill:#68B45D;}
	.st54{clip-path:url(#SVGID_6_);fill:#69B55D;}
	.st55{clip-path:url(#SVGID_6_);fill:#6AB55D;}
	.st56{clip-path:url(#SVGID_6_);fill:#6BB65D;}
	.st57{clip-path:url(#SVGID_6_);fill:#6CB65D;}
	.st58{clip-path:url(#SVGID_6_);fill:#6DB65D;}
	.st59{clip-path:url(#SVGID_6_);fill:#6EB75D;}
	.st60{clip-path:url(#SVGID_6_);fill:#6FB75D;}
	.st61{clip-path:url(#SVGID_6_);fill:#70B85C;}
	.st62{clip-path:url(#SVGID_6_);fill:#71B85C;}
	.st63{clip-path:url(#SVGID_6_);fill:#72B95C;}
	.st64{clip-path:url(#SVGID_6_);fill:#73B95C;}
	.st65{clip-path:url(#SVGID_6_);fill:#74B95C;}
	.st66{clip-path:url(#SVGID_6_);fill:#75BA5C;}
	.st67{clip-path:url(#SVGID_6_);fill:#76BA5C;}
	.st68{clip-path:url(#SVGID_6_);fill:#78BB5C;}
	.st69{clip-path:url(#SVGID_6_);fill:#79BB5B;}
	.st70{clip-path:url(#SVGID_6_);fill:#7ABB5B;}
	.st71{clip-path:url(#SVGID_6_);fill:#7BBC5B;}
	.st72{clip-path:url(#SVGID_6_);fill:#7CBC5B;}
</style>
<title>google-play</title>
<g>
	<path class="st0" d="M1.8,0h45.7c1,0,1.8,0.8,1.8,1.8v11c0,1-0.8,1.8-1.8,1.8H1.8c-1,0-1.8-0.8-1.8-1.8v-11C0,0.8,0.8,0,1.8,0z"/>
</g>
<g>
	<path class="st1" d="M47.5,0.3c0.8,0,1.5,0.7,1.5,1.5v11c0,0.8-0.7,1.5-1.5,1.5H1.8c-0.8,0-1.5-0.7-1.5-1.5v-11
		C0.4,1,1,0.4,1.8,0.3H47.5 M47.5,0H1.8C0.8,0,0,0.8,0,1.8v11c0,1,0.8,1.8,1.8,1.8h45.7c1,0,1.8-0.9,1.8-1.9v-11
		C49.3,0.8,48.5,0,47.5,0L47.5,0z"/>
</g>
<g>
	<path class="st2" d="M24.9,7.9c-0.9,0-1.6,0.7-1.6,1.6c0,0.9,0.7,1.6,1.6,1.6c0.9,0,1.6-0.7,1.6-1.6C26.5,8.7,25.8,8,24.9,7.9
		C24.9,7.9,24.9,7.9,24.9,7.9z M24.9,10.4c-0.5,0-1-0.4-1-0.9c0-0.5,0.4-1,0.9-1c0.5,0,1,0.4,1,0.9c0,0,0,0,0,0.1
		C25.8,10,25.4,10.4,24.9,10.4C24.9,10.4,24.9,10.4,24.9,10.4z M21.5,7.9c-0.9,0-1.6,0.7-1.6,1.6c0,0.9,0.7,1.6,1.6,1.6
		c0.9,0,1.6-0.7,1.6-1.6C23.1,8.7,22.4,8,21.5,7.9C21.5,7.9,21.5,7.9,21.5,7.9z M21.5,10.4c-0.5,0-1-0.4-1-0.9c0-0.5,0.4-1,0.9-1
		c0.5,0,1,0.4,1,0.9c0,0,0,0,0,0.1C22.4,10,22,10.4,21.5,10.4C21.5,10.4,21.5,10.4,21.5,10.4z M17.5,8.4v0.7H19
		c0,0.3-0.2,0.6-0.4,0.8c-0.3,0.3-0.8,0.5-1.2,0.5c-1-0.1-1.7-0.9-1.6-1.9c0.1-0.9,0.8-1.6,1.6-1.6c0.4,0,0.9,0.2,1.2,0.5l0.5-0.5
		c-0.4-0.4-1-0.7-1.7-0.7c-1.3-0.1-2.5,0.9-2.6,2.3c-0.1,1.3,0.9,2.5,2.3,2.6c0.1,0,0.2,0,0.3,0c1.2,0.1,2.2-0.8,2.3-2
		c0-0.1,0-0.2,0-0.2c0-0.1,0-0.3,0-0.4L17.5,8.4z M34,9c-0.2-0.6-0.7-1-1.3-1c-0.8,0-1.5,0.7-1.5,1.5c0,0,0,0,0,0.1
		c0,0.9,0.7,1.6,1.5,1.6c0.5,0,1-0.3,1.3-0.7L33.5,10c-0.2,0.3-0.4,0.4-0.8,0.4c-0.3,0-0.6-0.2-0.8-0.5l2.1-0.9L34,9z M31.9,9.5
		c0-0.5,0.3-0.9,0.8-0.9c0,0,0,0,0,0c0.2,0,0.5,0.1,0.6,0.3L31.9,9.5z M30.2,11h0.7V6.4h-0.7V11z M29.1,8.3L29.1,8.3
		C28.9,8.1,28.6,8,28.3,8c-0.8,0-1.5,0.7-1.5,1.6c0,0.8,0.7,1.5,1.5,1.6c0.3,0,0.6-0.1,0.8-0.4l0,0V11c0,0.6-0.3,0.9-0.8,0.9
		c-0.4,0-0.7-0.2-0.8-0.6l-0.6,0.2c0.2,0.6,0.8,0.9,1.4,0.9c0.8,0,1.5-0.6,1.5-1.3c0-0.1,0-0.2,0-0.3V8.1h-0.7L29.1,8.3z M28.3,10.4
		c-0.5,0-0.9-0.4-0.9-0.9c0-0.5,0.4-0.9,0.9-0.9l0,0c0.5,0,0.9,0.4,0.8,0.9c0,0,0,0,0,0C29.2,10,28.9,10.4,28.3,10.4
		C28.4,10.4,28.4,10.4,28.3,10.4z M37.2,6.4h-1.7V11h0.7V9.2h1c0.8,0,1.4-0.6,1.4-1.4S38.1,6.4,37.2,6.4L37.2,6.4L37.2,6.4z
		 M37.2,8.6h-1V7h1c0.4,0,0.8,0.3,0.9,0.7c0,0.4-0.3,0.8-0.7,0.9C37.4,8.6,37.3,8.6,37.2,8.6L37.2,8.6z M41.5,8
		c-0.5,0-1,0.2-1.2,0.7l0.6,0.3c0.1-0.2,0.4-0.4,0.6-0.3c0.4,0,0.7,0.2,0.7,0.6l0,0C42,9.1,41.7,9,41.5,9c-0.7,0-1.3,0.4-1.3,1
		c0,0.6,0.5,1,1.1,1c0,0,0,0,0,0c0.4,0,0.7-0.2,0.9-0.4l0,0v0.4h0.7V9.2c0-0.7-0.5-1.3-1.2-1.3C41.6,7.9,41.5,7.9,41.5,8L41.5,8z
		 M41.4,10.5c-0.2,0-0.5-0.1-0.5-0.4s0.4-0.5,0.7-0.5c0.2,0,0.4,0.1,0.6,0.2C42.1,10.2,41.8,10.4,41.4,10.5L41.4,10.5z M45.3,8.1
		l-0.8,2l0,0l-0.8-2h-0.7l1.2,2.8l-0.7,1.5h0.7L46,8L45.3,8.1z M39.1,11h0.7V6.4h-0.7V11z"/>
</g>
<g>
	<path class="st3" d="M3.8,2.8C3.7,2.9,3.6,3.1,3.6,3.3v8.1c0,0.2,0,0.4,0.2,0.5l0,0l4.5-4.5V7.2L3.8,2.8L3.8,2.8z"/>
</g>
<g>
	<g>
		<defs>
			<path id="SVGID_1_" d="M9.9,8.9L8.3,7.3V7.2l1.5-1.5l0,0l1.8,1c0.3,0.1,0.4,0.4,0.3,0.7c-0.1,0.2-0.2,0.3-0.3,0.3L9.9,8.9
				L9.9,8.9z"/>
		</defs>
		<clipPath id="SVGID_2_">
			<use xlink:href="#SVGID_1_"  style="overflow:visible;"/>
		</clipPath>
		<rect x="8.3" y="5.7" class="st4" width="3.7" height="3.2"/>
	</g>
</g>
<g>
	<g>
		<defs>
			<path id="SVGID_3_" d="M9.9,8.9L8.3,7.3l-4.5,4.5c0.2,0.2,0.5,0.2,0.8,0L9.9,8.9"/>
		</defs>
		<clipPath id="SVGID_4_">
			<use xlink:href="#SVGID_3_"  style="overflow:visible;"/>
		</clipPath>
		<polygon class="st5" points="9.9,7.4 9.9,7.3 9.9,7.3 		"/>
		<polygon class="st6" points="9.9,7.8 9.5,7.3 9.9,7.3 9.9,7.4 		"/>
		<polygon class="st7" points="9.9,8.2 9.1,7.3 9.5,7.3 9.9,7.8 		"/>
		<polygon class="st8" points="9.9,8.6 8.7,7.3 9.1,7.3 9.9,8.2 		"/>
		<polygon class="st9" points="9.9,9 8.3,7.3 8.7,7.3 9.9,8.6 		"/>
		<polygon class="st9" points="8.3,7.3 9.9,9 9.9,12.1 3.8,12.1 3.8,7.3 		"/>
	</g>
</g>
<g>
	<g>
		<defs>
			<path id="SVGID_5_" d="M9.9,5.8l-5.3-3C4.4,2.6,4,2.6,3.8,2.8l4.5,4.6L9.9,5.8z"/>
		</defs>
		<clipPath id="SVGID_6_">
			<use xlink:href="#SVGID_5_"  style="overflow:visible;"/>
		</clipPath>
		<polygon class="st10" points="3.9,2.6 3.8,2.7 3.8,2.6 		"/>
		<polygon class="st11" points="4,2.6 3.8,2.8 3.8,2.7 3.9,2.6 		"/>
		<polygon class="st12" points="4.2,2.6 3.8,3 3.8,2.8 4,2.6 		"/>
		<polygon class="st13" points="4.3,2.6 3.8,3.1 3.8,3 4.2,2.6 		"/>
		<polygon class="st14" points="4.4,2.6 3.8,3.2 3.8,3.1 4.3,2.6 		"/>
		<polygon class="st15" points="4.6,2.6 3.8,3.3 3.8,3.2 4.4,2.6 		"/>
		<polygon class="st16" points="4.7,2.6 3.8,3.5 3.8,3.3 4.6,2.6 		"/>
		<polygon class="st17" points="4.8,2.6 3.8,3.6 3.8,3.5 4.7,2.6 		"/>
		<polygon class="st18" points="4.9,2.6 3.8,3.7 3.8,3.6 4.8,2.6 		"/>
		<polygon class="st19" points="5.1,2.6 3.8,3.9 3.8,3.7 4.9,2.6 		"/>
		<polygon class="st20" points="5.2,2.6 3.8,4 3.8,3.9 5.1,2.6 		"/>
		<polygon class="st21" points="5.3,2.6 3.8,4.1 3.8,4 5.2,2.6 		"/>
		<polygon class="st22" points="5.5,2.6 3.8,4.2 3.8,4.1 5.3,2.6 		"/>
		<polygon class="st23" points="5.6,2.6 3.8,4.4 3.8,4.2 5.5,2.6 		"/>
		<polygon class="st24" points="5.7,2.6 3.8,4.5 3.8,4.4 5.6,2.6 		"/>
		<polygon class="st25" points="5.9,2.6 3.8,4.6 3.8,4.5 5.7,2.6 		"/>
		<polygon class="st26" points="6,2.6 3.8,4.8 3.8,4.6 5.9,2.6 		"/>
		<polygon class="st27" points="6.1,2.6 3.8,4.9 3.8,4.8 6,2.6 		"/>
		<polygon class="st28" points="6.2,2.6 3.8,5 3.8,4.9 6.1,2.6 		"/>
		<polygon class="st29" points="6.4,2.6 3.8,5.1 3.8,5 6.2,2.6 		"/>
		<polygon class="st30" points="6.5,2.6 3.8,5.3 3.8,5.1 6.4,2.6 		"/>
		<polygon class="st31" points="6.6,2.6 3.8,5.4 3.8,5.3 6.5,2.6 		"/>
		<polygon class="st32" points="6.8,2.6 3.8,5.5 3.8,5.4 6.6,2.6 		"/>
		<polygon class="st33" points="6.9,2.6 3.8,5.7 3.8,5.5 6.8,2.6 		"/>
		<polygon class="st34" points="7,2.6 3.8,5.8 3.8,5.7 6.9,2.6 		"/>
		<polygon class="st35" points="7.1,2.6 3.8,5.9 3.8,5.8 7,2.6 		"/>
		<polygon class="st36" points="7.3,2.6 3.8,6 3.8,5.9 7.1,2.6 		"/>
		<polygon class="st37" points="7.4,2.6 3.8,6.2 3.8,6 7.3,2.6 		"/>
		<polygon class="st38" points="7.5,2.6 3.8,6.3 3.8,6.2 7.4,2.6 		"/>
		<polygon class="st39" points="7.7,2.6 3.8,6.4 3.8,6.3 7.5,2.6 		"/>
		<polygon class="st40" points="7.8,2.6 3.8,6.6 3.8,6.4 7.7,2.6 		"/>
		<polygon class="st41" points="7.9,2.6 3.8,6.7 3.8,6.6 7.8,2.6 		"/>
		<polygon class="st41" points="8.1,2.6 3.8,6.9 3.8,6.7 7.9,2.6 		"/>
		<polygon class="st42" points="8.3,2.6 3.8,7 3.8,6.9 8.1,2.6 		"/>
		<polygon class="st43" points="8.4,2.6 3.8,7.2 3.8,7 8.3,2.6 		"/>
		<polygon class="st44" points="8.6,2.6 3.8,7.3 3.8,7.3 3.8,7.2 8.4,2.6 		"/>
		<polygon class="st45" points="8.8,2.6 4,7.3 3.8,7.3 8.6,2.6 		"/>
		<polygon class="st46" points="8.9,2.6 4.2,7.3 4,7.3 8.8,2.6 		"/>
		<polygon class="st47" points="9.1,2.6 4.4,7.3 4.2,7.3 8.9,2.6 		"/>
		<polygon class="st48" points="9.3,2.6 4.5,7.3 4.4,7.3 9.1,2.6 		"/>
		<polygon class="st49" points="9.4,2.6 4.7,7.3 4.5,7.3 9.3,2.6 		"/>
		<polygon class="st50" points="9.6,2.6 4.9,7.3 4.7,7.3 9.4,2.6 		"/>
		<polygon class="st51" points="9.8,2.6 5,7.3 4.9,7.3 9.6,2.6 		"/>
		<polygon class="st52" points="9.9,2.6 5.2,7.3 5,7.3 9.8,2.6 9.9,2.6 		"/>
		<polygon class="st53" points="9.9,2.8 5.4,7.3 5.2,7.3 9.9,2.6 		"/>
		<polygon class="st54" points="9.9,3 5.5,7.3 5.4,7.3 9.9,2.8 		"/>
		<polygon class="st55" points="9.9,3.1 5.7,7.3 5.5,7.3 9.9,3 		"/>
		<polygon class="st56" points="9.9,3.3 5.9,7.3 5.7,7.3 9.9,3.1 		"/>
		<polygon class="st57" points="9.9,3.5 6,7.3 5.9,7.3 9.9,3.3 		"/>
		<polygon class="st58" points="9.9,3.6 6.2,7.3 6,7.3 9.9,3.5 		"/>
		<polygon class="st59" points="9.9,3.8 6.4,7.3 6.2,7.3 9.9,3.6 		"/>
		<polygon class="st60" points="9.9,4 6.6,7.3 6.4,7.3 9.9,3.8 		"/>
		<polygon class="st61" points="9.9,4.2 6.7,7.3 6.6,7.3 9.9,4 		"/>
		<polygon class="st62" points="9.9,4.3 6.9,7.3 6.7,7.3 9.9,4.2 		"/>
		<polygon class="st63" points="9.9,4.5 7.1,7.3 6.9,7.3 9.9,4.3 		"/>
		<polygon class="st64" points="9.9,4.7 7.2,7.3 7.1,7.3 9.9,4.5 		"/>
		<polygon class="st64" points="9.9,4.9 7.5,7.3 7.2,7.3 9.9,4.7 		"/>
		<polygon class="st65" points="9.9,5.2 7.8,7.3 7.5,7.3 9.9,4.9 		"/>
		<polygon class="st66" points="9.9,5.5 8.1,7.3 7.8,7.3 9.9,5.2 		"/>
		<polygon class="st67" points="9.9,5.8 8.3,7.3 8.1,7.3 9.9,5.5 		"/>
		<polygon class="st68" points="9.9,6 8.6,7.3 8.3,7.3 9.9,5.8 		"/>
		<polygon class="st69" points="9.9,6.3 8.9,7.3 8.6,7.3 9.9,6 		"/>
		<polygon class="st70" points="9.9,6.6 9.1,7.3 8.9,7.3 9.9,6.3 		"/>
		<polygon class="st71" points="9.9,6.8 9.4,7.3 9.1,7.3 9.9,6.6 		"/>
		<polygon class="st72" points="9.9,7.1 9.7,7.3 9.4,7.3 9.9,6.8 		"/>
		<polygon class="st72" points="9.7,7.3 9.9,7.1 9.9,7.3 		"/>
	</g>
</g>
<g>
	<path class="st2" d="M15.1,4.8V2.6h0.7c0.3,0,0.6,0.1,0.8,0.3c0.2,0.2,0.3,0.5,0.3,0.8c0,0.3-0.1,0.6-0.3,0.8
		c-0.2,0.2-0.5,0.3-0.8,0.3L15.1,4.8z M15.3,4.5h0.4c0.2,0,0.4-0.1,0.6-0.2c0.2-0.2,0.2-0.4,0.2-0.6c0-0.4-0.3-0.8-0.7-0.8
		c0,0-0.1,0-0.1,0h-0.4V4.5z"/>
</g>
<g>
	<path class="st2" d="M15.1,4.8L15.1,4.8V2.6h0.6c0.3,0,0.6,0.1,0.8,0.3c0.2,0.2,0.3,0.5,0.3,0.8c0,0.6-0.4,1-0.9,1.1
		c0,0-0.1,0-0.1,0L15.1,4.8L15.1,4.8L15.1,4.8L15.1,4.8l0.6,0c0.3,0,0.6-0.1,0.8-0.3c0.2-0.2,0.3-0.5,0.3-0.8c0-0.3-0.1-0.6-0.3-0.8
		c-0.2-0.2-0.5-0.3-0.8-0.3H15L15.1,4.8L15.1,4.8L15.1,4.8z M15.3,4.5L15.3,4.5h0.4c0.2,0,0.5,0,0.7-0.1c0.2-0.2,0.3-0.4,0.2-0.6
		c0-0.4-0.3-0.8-0.7-0.9c0,0-0.1,0-0.1,0h-0.4V4.5L15.3,4.5L15.3,4.5L15.3,4.5V2.9h0.4c0.2,0,0.4,0.1,0.6,0.2
		c0.1,0.2,0.2,0.4,0.2,0.6c0,0.2,0,0.4-0.1,0.6c-0.2,0.1-0.4,0.2-0.6,0.2L15.3,4.5L15.3,4.5L15.3,4.5L15.3,4.5z"/>
</g>
<g>
	<rect x="17.3" y="2.6" class="st2" width="0.3" height="2.2"/>
</g>
<g>
	<polygon class="st2" points="17.3,4.8 17.3,4.8 17.3,2.6 17.5,2.6 17.5,4.7 17.3,4.7 17.3,4.8 17.3,4.8 17.3,4.8 17.3,4.8 
		17.6,4.8 17.6,4.8 17.6,2.5 17.3,2.5 17.2,2.5 17.2,4.8 17.3,4.8 	"/>
</g>
<g>
	<path class="st2" d="M18.7,4.8c-0.2,0-0.3-0.1-0.5-0.2c-0.1-0.1-0.3-0.3-0.3-0.4l0.3-0.1c0,0.1,0.1,0.2,0.2,0.3
		c0.1,0.1,0.2,0.1,0.3,0.1c0.1,0,0.2,0,0.3-0.1c0.1-0.1,0.1-0.2,0.1-0.3c0-0.1,0-0.2-0.1-0.3c-0.1-0.1-0.3-0.2-0.4-0.2
		c-0.2,0-0.3-0.1-0.4-0.2C18,3.4,18,3.2,18,3.1c0-0.2,0.1-0.3,0.2-0.4c0.3-0.2,0.7-0.2,0.9,0c0.1,0.1,0.2,0.2,0.2,0.3l-0.2,0.1
		L19,2.9c-0.1-0.1-0.2-0.1-0.3-0.1c-0.1,0-0.2,0-0.3,0.1l-0.1,0.2l0.1,0.2c0.1,0.1,0.2,0.1,0.3,0.2l0.3,0.1l0.2,0.1l0.2,0.2
		c0,0.1,0.1,0.2,0.1,0.3c0,0.1,0,0.2-0.1,0.3l-0.2,0.2l-0.2,0.1H18.7z"/>
</g>
<g>
	<path class="st2" d="M18.7,4.8L18.7,4.8c-0.2,0-0.3-0.1-0.5-0.1c-0.1-0.1-0.2-0.2-0.3-0.4l0,0l0,0l0.2-0.1l0,0l0,0
		c0,0.1,0.1,0.2,0.2,0.3c0.1,0.1,0.2,0.1,0.4,0.1c0.1,0,0.2,0,0.3-0.1c0.1-0.1,0.1-0.2,0.1-0.3c0-0.1,0-0.2-0.1-0.3
		c-0.1-0.1-0.3-0.1-0.4-0.2c-0.2,0-0.3-0.1-0.4-0.2c-0.1-0.1-0.1-0.2-0.1-0.3c0-0.1,0.1-0.3,0.2-0.4c0.1-0.1,0.3-0.2,0.5-0.2
		c0.2,0,0.3,0,0.4,0.1c0.1,0.1,0.2,0.2,0.2,0.3l0,0l0,0l-0.2,0.1L19,2.9l0,0c-0.2-0.1-0.4-0.1-0.6,0l0,0l-0.1,0.2l0,0l0,0.2l0,0
		c0.1,0.1,0.2,0.1,0.3,0.2c0.1,0,0.2,0.1,0.3,0.1l0,0l0,0l0.2,0.1l0.2,0.2l0,0l0,0c0,0.1,0.1,0.2,0.1,0.3c0,0.1,0,0.2-0.1,0.3l0,0
		l0,0l-0.2,0.2l-0.2,0.1L18.7,4.8L18.7,4.8l0.2,0l0,0l0.2-0.1l0,0l0.2-0.2l0,0c0-0.1,0.1-0.2,0.1-0.3c0-0.1,0-0.2-0.1-0.3l0,0
		l-0.2-0.2l0,0L19,3.6l0,0l-0.3-0.1c-0.1,0-0.2-0.1-0.3-0.2l0,0l0,0l0-0.2l0.1-0.2l0,0l0,0c0.1-0.1,0.2-0.1,0.2-0.1
		c0.1,0,0.2,0,0.3,0.1l0,0l0,0l0.1,0.2l0,0L19.3,3l0,0l0,0c0-0.1-0.1-0.2-0.2-0.3c-0.1-0.1-0.3-0.2-0.5-0.2c-0.2,0-0.4,0.1-0.5,0.2
		C18,2.8,17.9,3,17.9,3.1c0,0.1,0.1,0.3,0.2,0.4c0.1,0.1,0.3,0.2,0.5,0.2c0.1,0,0.3,0.1,0.4,0.2C19,4,19.1,4.1,19,4.2
		c0,0.1,0,0.2-0.1,0.2c-0.1,0.1-0.2,0.1-0.3,0.1c-0.1,0-0.2-0.1-0.3-0.2c-0.1-0.1-0.1-0.2-0.2-0.3l0,0l-0.3,0.1l0,0l0,0
		c0,0.2,0.2,0.3,0.3,0.4C18.3,4.7,18.5,4.8,18.7,4.8L18.7,4.8L18.7,4.8z"/>
</g>
<g>
	<path class="st2" d="M20.1,4.8h-0.3V2.6h0.7c0.2,0,0.4,0.1,0.5,0.2c0.3,0.2,0.3,0.7,0,0.9c0,0,0,0,0,0c-0.1,0.1-0.3,0.2-0.5,0.2
		h-0.5V4.8z M20.1,3.6h0.5c0.1,0,0.2,0,0.3-0.1C21,3.3,21,3.1,20.9,3c-0.1-0.1-0.2-0.1-0.3-0.1h-0.5V3.6z"/>
</g>
<g>
	<path class="st2" d="M20.1,4.8L20.1,4.8h-0.2V2.6h0.7c0.2,0,0.3,0.1,0.5,0.2c0.2,0.2,0.3,0.6,0,0.8c0,0,0,0,0,0
		c-0.1,0.1-0.3,0.2-0.5,0.2h-0.5L20.1,4.8L20.1,4.8L20.1,4.8L20.1,4.8l0-0.9h0.4c0.2,0,0.4-0.1,0.5-0.2c0.3-0.2,0.3-0.7,0.1-0.9
		c0,0,0,0-0.1-0.1c-0.1-0.1-0.3-0.2-0.5-0.2h-0.8v2.3L20.1,4.8L20.1,4.8L20.1,4.8z M20.1,3.6L20.1,3.6h0.5c0.1,0,0.2,0,0.3-0.1
		C21,3.4,21,3.3,21,3.2c0-0.1,0-0.2-0.1-0.3c-0.1-0.1-0.2-0.1-0.3-0.1h-0.5L20.1,3.6L20.1,3.6L20.1,3.6L20.1,3.6l0-0.7h0.4
		c0.1,0,0.2,0,0.3,0.1l0.1,0.2l-0.1,0.2c-0.1,0.1-0.2,0.1-0.3,0.1L20.1,3.6L20.1,3.6L20.1,3.6L20.1,3.6z"/>
</g>
<g>
	<path class="st2" d="M23.4,4.5c-0.2,0.2-0.5,0.3-0.8,0.3c-0.3,0-0.6-0.1-0.8-0.3c-0.4-0.5-0.4-1.2,0-1.6c0.4-0.4,1.2-0.4,1.6,0
		c0.2,0.2,0.3,0.5,0.3,0.8C23.7,4,23.6,4.3,23.4,4.5z M22,4.3c0.3,0.3,0.8,0.3,1.2,0c0,0,0,0,0,0c0.3-0.4,0.3-0.9,0-1.2
		c-0.3-0.3-0.8-0.3-1.2,0c0,0,0,0,0,0C21.7,3.4,21.7,3.9,22,4.3z"/>
</g>
<g>
	<path class="st2" d="M23.4,4.5L23.4,4.5c-0.4,0.4-1.1,0.4-1.5,0c-0.4-0.4-0.4-1.1,0-1.6c0.4-0.4,1.1-0.4,1.5,0c0,0,0,0,0,0
		C23.8,3.3,23.8,4,23.4,4.5L23.4,4.5L23.4,4.5c0.2-0.3,0.3-0.6,0.3-0.9c0-0.3-0.1-0.6-0.3-0.8c-0.2-0.2-0.5-0.4-0.8-0.3
		c-0.3,0-0.6,0.1-0.8,0.3c-0.5,0.5-0.5,1.2,0,1.7c0.2,0.2,0.5,0.4,0.8,0.4C22.8,4.8,23.1,4.7,23.4,4.5L23.4,4.5z M22,4.3L22,4.3
		c0.3,0.3,0.9,0.3,1.2,0c0,0,0,0,0,0c0.2-0.2,0.3-0.4,0.2-0.6c0-0.2-0.1-0.5-0.2-0.7c-0.3-0.3-0.9-0.3-1.2,0c0,0,0,0,0,0
		c-0.2,0.2-0.3,0.4-0.2,0.7C21.7,3.9,21.8,4.1,22,4.3L22,4.3L22,4.3c-0.3-0.3-0.3-0.9,0-1.2c0.1-0.2,0.4-0.2,0.6-0.2
		c0.2,0,0.4,0.1,0.6,0.2c0.3,0.3,0.3,0.9,0,1.2c-0.1,0.2-0.4,0.2-0.6,0.2C22.4,4.5,22.1,4.4,22,4.3z"/>
</g>
<g>
	<polygon class="st2" points="24.1,4.8 24.1,2.6 24.5,2.6 25.5,4.3 25.5,4.3 25.5,3.8 25.5,2.6 25.8,2.6 25.8,4.8 25.5,4.8 24.4,3 
		24.4,3 24.4,3.4 24.4,4.8 	"/>
</g>
<g>
	<polygon class="st2" points="24.1,4.8 24.2,4.8 24.2,2.6 24.4,2.6 25.5,4.3 25.5,4.3 25.6,4.3 25.6,3.8 25.6,2.6 25.8,2.6 
		25.8,4.7 25.5,4.7 24.4,2.9 24.4,2.9 24.4,2.9 24.4,3.4 24.4,4.7 24.1,4.7 24.1,4.8 24.2,4.8 24.1,4.8 24.1,4.8 24.4,4.8 24.4,4.8 
		24.4,3.4 24.4,3 24.4,3 24.4,3 24.4,3 24.4,3 24.4,3 25.5,4.8 25.8,4.8 25.9,4.8 25.9,2.5 25.5,2.5 25.5,2.5 25.5,3.8 25.5,4.3 
		25.5,4.3 25.5,4.2 25.5,4.2 25.5,4.3 25.6,4.2 24.5,2.5 24.1,2.5 24.1,2.5 24.1,4.8 24.1,4.8 	"/>
</g>
<g>
	<rect x="26.3" y="2.6" class="st2" width="0.3" height="2.2"/>
</g>
<g>
	<polygon class="st2" points="26.3,4.8 26.4,4.8 26.4,2.6 26.6,2.6 26.6,4.7 26.3,4.7 26.3,4.8 26.4,4.8 26.3,4.8 26.3,4.8 
		26.6,4.8 26.6,4.8 26.6,2.5 26.3,2.5 26.3,2.5 26.3,4.8 26.3,4.8 	"/>
</g>
<g>
	<path class="st2" d="M27.1,4.8V2.6h0.8c0.2,0,0.3,0.1,0.4,0.2c0.1,0.1,0.2,0.3,0.2,0.4c0,0.1,0,0.2-0.1,0.3l-0.2,0.2l0,0
		c0.1,0,0.2,0.1,0.3,0.2c0.1,0.1,0.1,0.2,0.1,0.3c0,0.2-0.1,0.3-0.2,0.4c-0.1,0.1-0.3,0.2-0.5,0.2L27.1,4.8z M27.3,3.5h0.5
		c0.1,0,0.2,0,0.3-0.1l0.1-0.2l-0.1-0.2C28,2.9,28,2.8,27.9,2.8h-0.5V3.5z M27.3,4.5h0.6c0.1,0,0.2-0.1,0.3-0.2
		c0.1-0.1,0.1-0.2,0.1-0.2l-0.1-0.3c-0.1-0.1-0.2-0.1-0.3-0.1h-0.6V4.5z"/>
</g>
<g>
	<path class="st2" d="M27.1,4.8L27.1,4.8V2.6h0.8c0.2,0,0.3,0.1,0.4,0.2c0.1,0.1,0.2,0.3,0.2,0.4c0,0.1,0,0.2-0.1,0.2l0,0l0,0
		l-0.2,0.2l0,0v0.1l0,0c0.1,0,0.2,0.1,0.2,0.2c0.1,0.1,0.1,0.2,0.1,0.3c0,0.2-0.1,0.3-0.2,0.4c-0.1,0.1-0.3,0.2-0.5,0.2L27.1,4.8
		L27.1,4.8L27.1,4.8L27.1,4.8l0.8,0c0.2,0,0.4-0.1,0.5-0.2c0.1-0.1,0.2-0.3,0.2-0.5c0-0.1,0-0.2-0.1-0.3c-0.1-0.1-0.2-0.2-0.3-0.2
		l0,0l0,0l0,0l0.2-0.2l0,0c0.1-0.1,0.1-0.2,0.1-0.3c0-0.2-0.1-0.3-0.2-0.5c-0.1-0.1-0.3-0.2-0.5-0.2H27v2.4l0,0L27.1,4.8z M27.3,3.5
		L27.3,3.5h0.5c0.1,0,0.2,0,0.3-0.1l0,0l0.1-0.2l0,0l-0.1-0.2l0,0c-0.1-0.1-0.2-0.1-0.3-0.1h-0.5V3.5L27.3,3.5L27.3,3.5L27.3,3.5
		V2.9h0.5c0.1,0,0.2,0,0.2,0.1l0,0l0,0l0.1,0.2L28,3.4l0,0l0,0c-0.1,0.1-0.1,0.1-0.2,0.1L27.3,3.5L27.3,3.5L27.3,3.5L27.3,3.5z
		 M27.3,4.5L27.3,4.5h0.6c0.1,0,0.2,0,0.3-0.1c0.1-0.1,0.1-0.2,0.1-0.2l0,0l-0.1-0.2l0,0c-0.1-0.1-0.2-0.1-0.3-0.1h-0.6V4.5
		L27.3,4.5L27.3,4.5L27.3,4.5V3.8h0.5c0.1,0,0.2,0,0.2,0.1l0,0l0,0l0.1,0.2l0,0l-0.1,0.2c-0.1,0.1-0.1,0.1-0.2,0.1L27.3,4.5
		L27.3,4.5L27.3,4.5L27.3,4.5z"/>
</g>
<g>
	<polygon class="st2" points="29,4.8 29,2.6 29.3,2.6 29.3,4.5 30.2,4.5 30.2,4.8 	"/>
</g>
<g>
	<polygon class="st2" points="29,4.8 29,4.8 29,2.6 29.2,2.6 29.2,4.5 30.2,4.5 30.2,4.7 29,4.7 29,4.8 29,4.8 29,4.8 29,4.8 
		30.2,4.8 30.2,4.8 30.2,4.5 30.2,4.4 29.3,4.4 29.3,2.5 29,2.5 28.9,2.5 28.9,4.8 29,4.8 	"/>
</g>
<g>
	<polygon class="st2" points="31.8,2.8 30.8,2.8 30.8,3.5 31.8,3.5 31.8,3.8 30.8,3.8 30.8,4.5 31.8,4.5 31.8,4.8 30.6,4.8 
		30.6,2.6 31.8,2.6 	"/>
</g>
<g>
	<polygon class="st2" points="31.8,2.8 31.8,2.8 30.8,2.8 30.8,2.8 30.8,3.5 30.8,3.6 31.7,3.6 31.7,3.7 30.8,3.7 30.8,3.7 
		30.8,4.5 30.8,4.5 31.8,4.5 31.8,4.7 30.6,4.7 30.6,2.6 31.8,2.6 31.8,2.8 31.8,2.8 31.8,2.8 31.8,2.8 31.9,2.8 31.9,2.6 31.9,2.5 
		30.6,2.5 30.5,2.5 30.5,4.8 31.8,4.8 31.9,4.8 31.9,4.5 31.9,4.4 30.9,4.4 30.9,3.8 31.8,3.8 31.8,3.8 31.8,3.5 31.8,3.5 30.9,3.5 
		30.9,2.9 31.8,2.9 31.9,2.9 31.9,2.8 	"/>
</g>
<g>
	<polygon class="st2" points="34.3,2.8 33.3,2.8 33.3,3.5 34.2,3.5 34.2,3.8 33.3,3.8 33.3,4.5 34.3,4.5 34.3,4.8 33,4.8 33,2.6 
		34.3,2.6 	"/>
</g>
<g>
	<polygon class="st2" points="34.3,2.8 34.3,2.8 33.3,2.8 33.3,2.8 33.3,3.5 33.3,3.6 34.2,3.6 34.2,3.7 33.3,3.7 33.3,3.7 
		33.3,4.5 33.3,4.5 34.3,4.5 34.3,4.7 33.1,4.7 33.1,2.6 34.3,2.6 34.3,2.8 34.3,2.8 34.3,2.8 34.3,2.8 34.3,2.8 34.3,2.6 34.3,2.5 
		33,2.5 33,2.5 33,4.8 34.3,4.8 34.3,4.8 34.3,4.5 34.3,4.4 33.3,4.4 33.3,3.8 34.2,3.8 34.2,3.8 34.2,3.5 34.2,3.5 33.3,3.5 
		33.3,2.9 34.3,2.9 34.3,2.9 34.3,2.8 	"/>
</g>
<g>
	<polygon class="st2" points="34.8,4.8 34.8,2.6 35.1,2.6 36.2,4.3 36.2,4.3 36.2,3.8 36.2,2.6 36.4,2.6 36.4,4.8 36.2,4.8 35,3 
		35,3 35,3.4 35,4.8 	"/>
</g>
<g>
	<polygon class="st2" points="34.8,4.8 34.8,4.8 34.8,2.6 35.1,2.6 36.1,4.3 36.2,4.3 36.2,4.3 36.2,3.8 36.2,2.6 36.4,2.6 
		36.4,4.7 36.2,4.7 35,2.9 35,2.9 35,2.9 35,3.4 35,4.7 34.8,4.7 34.8,4.8 34.8,4.8 34.8,4.8 34.8,4.8 35,4.8 35.1,4.8 35.1,3.4 
		35.1,3 35,3 35,3 35,3 35,3 35,3 36.1,4.8 36.4,4.8 36.5,4.8 36.5,2.5 36.2,2.5 36.1,2.5 36.1,3.8 36.1,4.3 36.2,4.3 36.2,4.2 
		36.2,4.2 36.2,4.3 36.2,4.2 35.1,2.5 34.8,2.5 34.7,2.5 34.7,4.8 34.8,4.8 	"/>
</g>
</svg>
