<?xml version="1.0" encoding="utf-8"?>
<!-- Generator: Adobe Illustrator 24.0.1, SVG Export Plug-In . SVG Version: 6.00 Build 0)  -->
<svg version="1.1" id="Capa_1" xmlns="http://www.w3.org/2000/svg" xmlns:xlink="http://www.w3.org/1999/xlink" x="0px" y="0px"
	 viewBox="0 0 2500 129.4" style="enable-background:new 0 0 2500 129.4;" xml:space="preserve">
<style type="text/css">
	.st0{fill:#FF00FF;}
	.st1{fill:#FFFFFF;}
	.st2{fill:url(#SVGID_1_);}
</style>
<path class="st0" d="M340.8,325l-122.3-4.9c-12.4-20.1-34.6-33.5-59.9-33.5c-23.8,0-44.8,11.8-57.5,29.8l0,0L-24.4,325
	c51.8,0,100.7,40.6,122.5,68c14.9,18.7,34.7,34.3,60.4,34.3c26.7,0,49.9-14.9,61.8-36.8C245.9,351.1,290.3,325,340.8,325z"/>
<g>
	<g>
		<g>
			<path class="st1" d="M-58.6-17.9c-0.5,0-1-0.3-1.2-0.9C-65.2-34.5-79.9-45-96.4-45s-31.3,10.5-36.6,26.2c-0.2,0.7-1,1-1.6,0.8
				c-0.7-0.2-1-1-0.8-1.6c5.7-16.7,21.4-27.9,39.1-27.9c17.7,0,33.4,11.2,39.1,27.9c0.2,0.7-0.1,1.4-0.8,1.6
				C-58.3-18-58.5-17.9-58.6-17.9z"/>
		</g>
		<g>
			<path class="st1" d="M-96.4,35c-15.8,0-30.4-9.2-37.3-23.5c-0.3-0.6,0-1.4,0.6-1.7c0.6-0.3,1.4,0,1.7,0.6
				c6.4,13.4,20.1,22,34.9,22c14.8,0,28.5-8.6,34.9-22c0.3-0.6,1.1-0.9,1.7-0.6c0.6,0.3,0.9,1.1,0.6,1.7C-66,25.8-80.6,35-96.4,35z"
				/>
		</g>
	</g>
	<g>
		<polygon class="st1" points="-139.7,-0.9 -143.2,-14.1 -146.4,-14.1 -146.4,6 -144.3,6 -144.3,-10.7 -140.7,2.9 -138.6,2.9 
			-135,-10.7 -135,6 -132.9,6 -132.9,-14.1 -136.1,-14.1 		"/>
		<path class="st1" d="M-119.4-4c0,1.3-0.7,2.1-2,2.4v-12.5h-2.2v12.5c-1.3-0.3-2-1-2-2.4v-10.2h-2.2V-4c0,2.5,1.4,4,4.2,4.3V6h2.2
			V0.3c2.8-0.3,4.1-1.7,4.1-4.3v-10.2h-2.2V-4z"/>
		<path class="st1" d="M-98.5-14.6c-1.6,0-2.9,0.8-3.9,2.3c-0.6-1.5-1.9-2.3-4-2.3c-0.8,0-1.6,0.2-2.3,0.7c-0.7,0.4-1.3,1-1.7,1.8
			l-0.8-2h-0.9V6h2.2V-9.7c0-0.7,0.4-1.3,1.1-2c0.7-0.7,1.5-1,2.4-1c1.5,0,2.2,0.8,2.2,2.5V6h2.2V-9.7c0-0.7,0.4-1.3,1.1-2
			c0.7-0.7,1.5-1.1,2.4-1.1c1.5,0,2.2,0.8,2.2,2.5V6h2.2v-16.3C-94.1-13.2-95.6-14.6-98.5-14.6z"/>
		<path class="st1" d="M-83.6-14.6c-1.7,0-3,0.4-3.8,1.1c-0.8,0.8-1.3,1.8-1.3,3.2V2.1c0,1.4,0.4,2.5,1.3,3.2s2.1,1.1,3.8,1.1
			c1.7,0,3-0.4,3.8-1.1s1.3-1.8,1.3-3.2V0.4h-2.2v1.7c0,1.7-1,2.5-2.9,2.5c-2,0-2.9-0.8-2.9-2.5v-5.6h8.1v-6.8
			c0-1.4-0.4-2.5-1.3-3.2C-80.7-14.2-82-14.6-83.6-14.6z M-80.7-5.3h-5.9v-5c0-1.7,1-2.5,2.9-2.5c2,0,2.9,0.8,2.9,2.5V-5.3z"/>
		<path class="st1" d="M-67-14.6c-1.8,0-3.1,0.8-4.1,2.5l-0.8-2h-0.9V6h2.2V-9.7c0-0.7,0.4-1.3,1.1-2c0.8-0.7,1.6-1.1,2.5-1.1
			c0.9,0,1.5,0.2,1.9,0.7c0.3,0.4,0.5,1,0.5,1.8V6h2.2v-16.3C-62.4-13.2-63.9-14.6-67-14.6z"/>
		<path class="st1" d="M-48.6-14.1V1.5c0,0.7-0.4,1.3-1.1,2c-0.8,0.7-1.6,1.1-2.5,1.1c-0.9,0-1.5-0.2-1.9-0.7s-0.5-1-0.5-1.8v-16.3
			h-2.2V2.1c0,2.9,1.5,4.3,4.6,4.3c0.8,0,1.6-0.2,2.3-0.7c0.7-0.4,1.3-1,1.7-1.8l0.8,2h0.9v-20.1H-48.6z"/>
	</g>
</g>
<linearGradient id="SVGID_1_" gradientUnits="userSpaceOnUse" x1="923.449" y1="598.0524" x2="1576.551" y2="-533.1536">
	<stop  offset="0" style="stop-color:#7E57C2"/>
	<stop  offset="0.1436" style="stop-color:#714CB5"/>
	<stop  offset="0.4283" style="stop-color:#5D3AA1"/>
	<stop  offset="0.7139" style="stop-color:#513095"/>
	<stop  offset="1" style="stop-color:#4D2C91"/>
</linearGradient>
<path class="st2" d="M233.1,0H2500v64.9H325.8c-37.3,0.4-73.1,8.9-98.1,34.9l0,0c-15.2,18.1-38,29.6-63.5,29.6
	c-26.1,0-49.4-12.1-64.6-30.9C74.8,73.5,39.6,65.3,3,64.9H0V0h95.4H233.1z"/>
</svg>
